<svg xmlns="http://www.w3.org/2000/svg" version="1.1" viewBox="0 0 177.9 72">
  <path fill="#fff" d="M15,57.7v-15.7h20.4c2.3,0,4.3.8,5.8,2.2s2.4,3.3,2.4,5.6-.9,4.2-2.4,5.6c-1.5,1.4-3.5,2.3-5.8,2.3h-10.2s-10.2,0-10.2,0ZM15,29.4v-15.1h17.1c2.2,0,4.1.8,5.5,2.1s2.2,3.2,2.2,5.4-.8,4.1-2.2,5.4c-1.4,1.4-3.3,2.2-5.5,2.2H15ZM177.9,36c0-1,0-2-.1-3s-.2-2-.4-3h-28l-4.2,6.7-4.2,6.7h21.5c-1.3,4.3-3.7,8.1-7.1,10.8-3.3,2.7-7.5,4.2-12.4,4.2-6.1,0-11.5-2.5-15.4-6.6s-6.3-9.7-6.3-15.8,2.4-11.5,6.4-15.6c4-4,9.5-6.5,15.6-6.5,2.7,0,5.1.4,7.4,1.2,2.3.8,4.3,1.9,6.2,3.3l3.7-6,3.8-6c-2.9-2-6.1-3.6-9.6-4.7s-7.3-1.7-11.4-1.7c-5.4,0-10.3,1-14.6,2.8s-8.1,4.4-11.3,7.6c-7.6,7.6-9.8,15.4-11.3,22.5-1.5,7.1-2.4,13.6-7.6,18.8-2.2,2.2-4.6,3.8-7.2,4.9-2.6,1.1-5.4,1.7-8.5,1.7-6.3,0-11.9-2.6-16-6.6-4.1-4.1-6.6-9.6-6.6-15.7s2.5-11.4,6.6-15.5,9.7-6.6,16-6.7c2.6,0,5.1.4,7.3,1.2,2.2.7,4.3,1.8,6.1,3.2l3.8-6,3.8-6c-2.9-2-6.1-3.6-9.6-4.6-3.6-1.1-7.4-1.6-11.4-1.6-6.2,0-12,1.5-17.1,4.1s-9.4,6.4-12.6,10.9c-1.3-3.9-3.9-7.3-7.5-9.7-3.7-2.4-8.3-3.8-13.4-3.8H0v69h35.6c4.5,0,8.5-1.1,11.8-2.9s6-4.5,7.8-7.6c3.3,3.6,7.3,6.6,11.9,8.7,4.6,2.1,9.7,3.2,15.2,3.2,6.5,0,12.4-1.5,17.5-4.2s9.4-6.6,12.7-11.3c3.2,4.7,7.5,8.6,12.6,11.3,5.1,2.7,11.1,4.2,17.6,4.2,9.9,0,18.7-4,25-10.6,6.4-6.4,10.2-15.4,10.2-25.3"/>
</svg>