<svg version="1.1" xmlns="http://www.w3.org/2000/svg" xmlns:xlink="http://www.w3.org/1999/xlink" x="0px" y="0px" viewBox="0 0 229.9 69.8" xml:space="preserve">
 <style type="text/css">.st0{fill-rule:evenodd;clip-rule:evenodd;fill:#FFFFFF;}</style>
 <g>
  <path id="a" class="st0" d="M14.4,33.7h8.7c1.8,0,3.2,1.4,3.2,3.2v5.9c0,1.8-1.4,3.2-3.2,3.2h-8.7v19.5c0,1.8-1.4,3.2-3.2,3.2
		c0,0,0,0,0,0H3.2c-1.8,0-3.2-1.4-3.2-3.2c0,0,0,0,0,0v-34h0C0.1,15.3,10.9,2,24.9,0c1.9-0.3,3.6,1.2,3.6,3.2v8.7
		c0,1.5-1.1,2.8-2.5,3.1c-6.5,1.4-11.5,8.4-11.5,16.7L14.4,33.7L14.4,33.7z M180,34.7c-0.4-4.8-4.8-9.5-10.7-9.5
		c-6,0-10.9,4.6-11.5,9.5H180L180,34.7z M191.2,57.9c1.2,1.3,1.2,3.3,0,4.5c0,0-0.1,0.1-0.1,0.1c-5.2,4.7-12.6,7.3-19.8,7.3
		c-16.1,0-28.2-11.2-28.2-28.1c0-15.1,10.2-28.2,26.2-28.2c14.9,0,25.4,12.6,25.4,27.7c0,0.4,0,0.7,0,1.1c-0.1,1.7-1.5,3-3.2,3
		h-34.5c0.8,7.6,6.9,12.8,14.5,12.8c4.8,0,8.8-2.1,11.5-4.3c1.2-1,3.1-0.9,4.2,0.3L191.2,57.9L191.2,57.9z M114.3,47.6l13.9-31.1
		c0.5-1.1,1.6-1.9,2.9-1.9h8c2.3,0,3.8,2.4,2.9,4.5l-21.8,47.7c-0.5,1.1-1.6,1.9-2.9,1.9h-5.9c-1.2,0-2.4-0.7-2.9-1.9L86.6,19.1
		c-1-2.1,0.6-4.5,2.9-4.5h8c1.2,0,2.4,0.7,2.9,1.9L114.3,47.6L114.3,47.6z M70.5,34.7c-0.4-4.8-4.8-9.5-10.7-9.5
		c-6,0-10.9,4.6-11.5,9.5L70.5,34.7L70.5,34.7z M80.9,57.1c1.8,1.8,1.6,4.7-0.3,6.2c-5.1,4.2-12,6.5-18.8,6.5
		c-16.1,0-28.2-11.2-28.2-28.1c0-15.1,10.2-28.2,26.2-28.2c14.9,0,25.4,12.6,25.4,27.7c0,0.4,0,0.7,0,1.1c-0.1,1.7-1.5,3-3.2,3H47.6
		c0.8,7.6,6.9,12.8,14.5,12.8c4.4,0,8.1-1.8,10.8-3.8c1.7-1.3,4-1.2,5.5,0.3C78.5,54.7,80.9,57.1,80.9,57.1z M215.9,44.2l0,21.4
		c0,1.8-1.4,3.2-3.2,3.2h0h-8.1c-1.8,0-3.2-1.4-3.2-3.2c0,0,0,0,0,0V44h0c0.1-16.1,10.9-29.5,24.9-31.5c1.9-0.3,3.6,1.2,3.6,3.2v8.7
		c0,1.5-1.1,2.8-2.5,3.1C220.9,29,215.9,35.9,215.9,44.2z"/>
 </g>
</svg>