<svg width="149" height="32" viewBox="0 0 149 32" fill="none" xmlns="http://www.w3.org/2000/svg">
<g clip-path="url(#clip0_5975_24803)">
<path d="M0 17.335L0.969493 17.5915C0.969493 17.5915 12.8282 13.981 16.4379 13.7349C20.0475 13.981 31.9066 17.5915 31.9066 17.5915L32.8759 17.335C32.8759 17.335 22.5623 10.2554 16.4379 10.1177C10.3135 10.2554 0 17.335 0 17.335Z" fill="white"/>
<path d="M32.8759 0.25651L31.9066 0C31.9066 0 20.0475 3.61049 16.4382 3.85658C12.8284 3.61049 0.969245 0 0.969245 0L0 0.25651C0 0.25651 10.3135 7.33609 16.4382 7.47377C22.5623 7.33609 32.8759 0.25651 32.8759 0.25651Z" fill="white"/>
<path d="M41.4846 0.736023H45.7055V16.6039H41.4846V0.736023ZM50.6978 0.736023H58.2543L66.5141 13.0679H67.4218V0.736023H71.6427V16.6039H64.0862L55.8264 4.27234H54.9185V16.6039H50.6978V0.736023ZM76.6347 0.736023H88.8659C94.2892 0.736023 97.6022 3.75113 97.6022 8.66997C97.6022 13.5888 94.2892 16.6039 88.8659 16.6039H76.6347V0.736023ZM93.2681 8.66997C93.2681 5.81388 91.7249 4.27234 88.8659 4.27234H80.8554V13.0679H88.8659C91.7249 13.0679 93.2681 11.5263 93.2681 8.66997ZM101.006 0.736023H114.758C119.137 0.736023 121.724 2.84417 121.724 6.42613C121.724 9.03291 120.34 10.8689 117.912 11.6625V12.0252L121.815 16.5136V16.6042H116.959L113.147 12.1157H105.227V16.6042H101.006V0.736023ZM117.39 6.42588C117.39 5.04286 116.459 4.27234 114.757 4.27234H105.227V8.57942H114.757C116.459 8.57942 117.39 7.80865 117.39 6.42588ZM124.084 16.5134L133.547 0.736023H139.537L149 16.5136V16.6042H144.303L142.601 13.6573H130.483L128.781 16.6042H124.084V16.5136L124.084 16.5134ZM140.581 10.121L137.223 4.27234H135.861L132.503 10.121H140.581Z" fill="white"/>
<path d="M40.5547 26.4241C40.5547 23.2294 42.8475 21.15 46.3622 21.15H53.4819V23.0486H46.3622C44.0393 23.0486 42.8324 24.2088 42.8324 26.4239C42.8324 28.6389 44.0391 29.7994 46.3622 29.7994H51.2797V25.9267H53.4819V31.698H46.3622C42.8475 31.698 40.5547 29.6184 40.5547 26.4239V26.4241ZM63.9807 28.7149H58.7766V31.6985H56.5744V21.1503H64.3279C67.0581 21.1503 68.8078 22.6271 68.8078 24.9325C68.8078 26.575 67.918 27.7955 66.4243 28.3681V28.6543L69.0189 31.6379V31.6982H66.515L63.9807 28.7146V28.7149ZM66.5301 24.9325C66.5301 23.6817 65.7908 23.0488 64.3279 23.0488H58.7766V26.8158H64.3279C65.7911 26.8158 66.5301 26.183 66.5301 24.9322V24.9325ZM70.1955 26.4241C70.1955 23.0488 72.4884 20.8486 76.003 20.8486H78.4014C81.9161 20.8486 84.209 23.0486 84.209 26.4241C84.209 29.7997 81.9161 31.9996 78.4014 31.9996H76.003C72.4884 31.9996 70.1955 29.7997 70.1955 26.4241ZM81.9312 26.4241C81.9312 23.9982 80.7246 22.7474 78.4014 22.7474H76.003C73.6801 22.7474 72.4732 23.9982 72.4732 26.4241C72.4732 28.8501 73.6799 30.1011 76.003 30.1011H78.4014C80.7243 30.1011 81.9312 28.8503 81.9312 26.4241ZM86.0342 26.7255V21.15H88.3122V26.7255C88.3122 29.1366 89.5188 30.1011 91.842 30.1011H92.883C95.2059 30.1011 96.4128 29.1366 96.4128 26.7255V21.15H98.6908V26.7255C98.6908 30.1011 96.3979 31.9996 92.8832 31.9996H91.8422C88.3276 31.9996 86.0347 30.1011 86.0347 26.7255H86.0342ZM101.013 21.1503H108.028C110.758 21.1503 112.508 22.6271 112.508 24.9325C112.508 27.2378 110.758 28.7149 108.028 28.7149H103.216V31.6985H101.013V21.1503ZM110.23 24.9325C110.23 23.6817 109.491 23.0488 108.028 23.0488H103.216V26.8158H108.028C109.491 26.8158 110.23 26.183 110.23 24.9322V24.9325Z" fill="white"/>
</g>
<defs>
<clipPath id="clip0_5975_24803">
<rect width="149" height="32" fill="white"/>
</clipPath>
</defs>
</svg>