<svg xmlns="http://www.w3.org/2000/svg" version="1.1" viewBox="0 0 97.53 59.39">
  <defs><style>.st0{fill:#fff;}</style></defs>
  <g>
    <g>
      <polyline class="st0" points="38.15 17.24 36.52 12.29 39.11 9.69 41.28 18.18 44.7 21.61 42.48 23.84 39.08 20.42 30.98 17.86 33.42 15.41 38.1 17.23 38.15 17.24"/>
      <path class="st0" d="M28.36,23.58c-1.39,1.39-.93,3.08.76,4.78s3.37,2.16,4.76.77.92-3.09-.77-4.78-3.37-2.16-4.75-.77M26.62,21.84c2.73-2.74,6.34-2.48,8.9.1,2.49,2.19,2.73,5.98.54,8.47-.14.16-.29.32-.45.46-2.73,2.74-6.34,2.47-8.9-.1-2.49-2.19-2.73-5.98-.54-8.47.14-.16.29-.32.45-.46"/>
      <path class="st0" d="M30.62,35.75l-5.94-1.7h0c.68-1.45.35-3.18-.82-4.28-1.41-1.32-3.63-1.25-4.95.16-.02.02-.04.04-.05.06l-4.43,4.45,8.73,8.76,2.25-2.2-7.07-7.1,1.43-1.43c.6-.63,1.59-.65,2.22-.05.63.6.65,1.59.05,2.22-.01.01-.02.02-.04.04l-1.31,1.32,7.55,2.15,2.38-2.38"/>
      <polyline class="st0" points="7.18 41.75 15.91 50.51 21.93 44.47 20.14 42.69 16.34 46.5 14.44 44.59 17.52 41.51 15.74 39.72 12.66 42.81 11.17 41.31 14.97 37.49 13.19 35.71 7.18 41.75"/>
      <polyline class="st0" points="0 48.95 8.73 57.72 14.65 51.77 12.67 49.77 8.96 53.5 2.21 46.73 0 48.95"/>
      <polyline class="st0" points="92.23 43.64 89.44 52.93 89.43 52.94 95.46 46.88 97.53 48.96 88.81 57.72 86.07 54.98 88.45 45.41 88.46 45.4 82.49 51.39 80.48 49.37 89.21 40.6 92.23 43.64"/>
      <polyline class="st0" points="78.56 47.45 87.29 38.68 84.97 36.35 76.23 45.11 78.56 47.45"/>
      <polyline class="st0" points="68.71 37.57 74.63 43.52 76.62 41.52 72.91 37.8 79.65 31.03 77.44 28.81 68.71 37.57"/>
      <path class="st0" d="M67.06,35.91l1.68-6h0c1.44.69,3.16.37,4.26-.79,1.32-1.43,1.23-3.66-.2-4.97,0,0-.02-.02-.03-.03h0l-4.71-4.72-8.73,8.76,2.22,2.23,7.07-7.1,1.72,1.71c.62.61.62,1.61,0,2.23s-1.61.62-2.22,0l-1.58-1.58-1.86,7.86,2.38,2.38"/>
      <polyline class="st0" points="60.28 15.15 58.79 16.64 62.14 20 60.36 21.79 57.01 18.43 55.11 20.33 59.18 24.43 57.4 26.21 51.11 19.9 59.84 11.13 66.14 17.45 64.36 19.24 60.28 15.15"/>
      <polyline class="st0" points="45.14 13.91 51.93 10.65 46.92 15.69 48.93 17.71 57.66 8.95 54.89 6.16 48.32 9.38 48.32 9.38 51.61 2.87 48.75 0 40.02 8.77 42.04 10.79 47.05 5.75 43.81 12.57 45.14 13.91"/>
      <polyline class="st0" points="10.39 59.39 87.16 59.39 48.78 20.86 10.39 59.39"/>
    </g>
  </g>
</svg>