<svg version="1.1" xmlns="http://www.w3.org/2000/svg" xmlns:xlink="http://www.w3.org/1999/xlink" x="0px" y="0px" viewBox="0 0 264 50" xml:space="preserve">
 <style type="text/css">.st0{fill-rule:evenodd;clip-rule:evenodd;fill:#FFFFFF;}</style>
 <g>
  <path class="st0" d="M0.5,21c-0.7-0.8-0.7-2,0.1-2.8l8-8.3c0.8-0.9,2.2-0.9,3,0l6.1,6.3c0.8,0.9,2.2,0.9,3,0l5.9-6.1
		c0.8-0.9,2.2-0.9,3,0l8,8.2c0.8,0.8,0.8,2,0.1,2.8l-17,19.5c-0.8,1-2.3,1-3.2,0L0.5,21z M46.8,34.5l3.2-4.9
		c1.7,1.6,4.3,2.5,6.7,2.5c1.8,0,3.1-0.9,3.1-2.2c0-3.8-11.9-2.5-11.9-10.7c0-4.9,4.6-7.9,9.4-7.9c3.2,0,6.7,1.3,8.3,2.6l-3.1,4.9
		c-1.3-0.9-2.9-1.7-4.7-1.7c-1.8,0-3.3,0.7-3.3,2.1c0,3.3,11.9,2,11.9,10.8c0,4.9-4.6,7.9-9.8,7.9C53.3,37.9,49.7,36.7,46.8,34.5z
		 M89.7,28.2l5.1,3.9c-2.9,4-6.5,5.7-11.2,5.7c-7.6,0-13.2-5.9-13.2-13.3c0-7.4,5.7-13.3,13.2-13.3c4.3,0,8.1,2.1,10.3,5.1l-4.7,4.3
		c-1.3-1.8-3.3-3.1-5.7-3.1c-3.8,0-6.6,3.1-6.6,7c0,4,2.8,6.9,6.8,6.9C86.6,31.6,88.7,29.9,89.7,28.2z M116.9,28.4v-7.6
		c-1.4-1.9-3.5-3.2-6.1-3.2c-3.9,0-6.3,3.3-6.3,7c0,4,2.8,6.9,6.5,6.9C113.4,31.6,115.6,30.3,116.9,28.4z M123.5,11.8v25.5h-6.3
		v-2.1c-2,1.8-4.4,2.6-6.8,2.6c-3.6,0-7.1-1.7-9.3-4.3c-1.9-2.3-3.1-5.5-3.1-8.9c0-7.5,5.4-13.3,12.1-13.3c2.8,0,5.3,0.9,7.2,2.6
		v-2.1H123.5z M137.6,0v37.4h-6.6V0H137.6z M162.2,28.4v-7.6c-1.4-1.9-3.5-3.2-6.1-3.2c-3.9,0-6.3,3.3-6.3,7c0,4,2.8,6.9,6.5,6.9
		C158.8,31.6,161,30.3,162.2,28.4z M168.8,11.8v25.5h-6.3v-2.1c-2,1.8-4.4,2.6-6.8,2.6c-3.6,0-7.1-1.7-9.3-4.3
		c-1.9-2.3-3.1-5.5-3.1-8.9c0-7.5,5.4-13.3,12.1-13.3c2.8,0,5.3,0.9,7.2,2.6v-2.1H168.8z M176.4,50V11.8h6.3v2.1
		c1.9-1.6,4.4-2.6,7.2-2.6c6.7,0,12.1,5.8,12.1,13.3c0,3.5-1.2,6.6-3.1,8.9c-2.2,2.6-5.7,4.3-9.3,4.3c-2.5,0-4.6-0.7-6.6-2.3V50
		H176.4z M183,20.8v7.6c1.3,1.9,3.4,3.2,5.9,3.2c3.7,0,6.5-2.9,6.5-6.9c0-3.7-2.5-7-6.3-7C186.6,17.6,184.4,18.9,183,20.8z
		 M225.1,28.4v-7.6c-1.4-1.9-3.5-3.2-6.1-3.2c-3.9,0-6.3,3.3-6.3,7c0,4,2.8,6.9,6.5,6.9C221.6,31.6,223.8,30.3,225.1,28.4z
		 M231.7,11.8v25.5h-6.3v-2.1c-2,1.8-4.4,2.6-6.8,2.6c-3.6,0-7.1-1.7-9.3-4.3c-1.9-2.3-3.1-5.5-3.1-8.9c0-7.5,5.4-13.3,12.1-13.3
		c2.8,0,5.3,0.9,7.2,2.6v-2.1H231.7z M247.1,50h-6.9l6.8-15.2l-11-22.9h7.2l7.2,15.3l6.6-15.3h6.9L247.1,50z"/>
 </g>
</svg>